<?xml version="1.0" encoding="UTF-8"?>
<svg id="Layer_2" data-name="Layer 2" xmlns="http://www.w3.org/2000/svg" viewBox="0 0 69.42 60.55">
  <defs>
    <style>
      .cls-1 {
        fill: #8300fe;
      }

      .cls-2 {
        fill: #8300fa;
      }
    </style>
  </defs>
  <g id="Layer_1-2" data-name="Layer 1">
    <path class="cls-2" d="M59.49,3.73l-9.81,13.82c-14.83-1.25-27.13,2.36-27.53,8.09-.18,2.55,2.03,5.09,5.83,7.23,.7,.4,.49,1.52-.3,1.56L.15,35.71l-.15-3.16L17.88,5.43c1.54-2.33,3.99-3.77,6.66-3.89L57.66,0c1.83-.09,2.94,2.17,1.83,3.73Z"/>
    <path class="cls-1" d="M8.66,56.75l10.44-13.35c14.76,1.94,27.21-1.1,27.87-6.8,.3-2.54-1.79-5.18-5.48-7.5-.68-.43-.42-1.54,.38-1.54h27.56s0,3.16,0,3.16l-19.12,26.26c-1.64,2.26-4.17,3.58-6.83,3.58H10.31c-1.83,0-2.83-2.3-1.65-3.81Z"/>
  </g>
</svg>